# xmcd
#
# Track frame offsets:
#	150
#	16134
#	29304
#	44480
#	59939
#	72300
#	92845
#	105843
#	124554
#	140083
#	155798
#	168081
#	181028
#	193168
#	210791
#	229698
#
# Disc length: 3305 seconds
#
# Revision: 1
# Processed by: cddbd v1.5.2PL0 Copyright (c) Steve Scherf et al.
# Submitted via: audiograbber 1.83.01
#
DISCID=d60ce710
DTITLE=TSP Country - TSP Country 024
DYEAR=2007
DGENRE=Country
TTITLE0=Show Me  - Laurelyn Carter
TTITLE1=Mixed Up Crazy  - Garry Jackson
TTITLE2=The Son I Used To Be  - Bubba Brown
TTITLE3=Another Witness Take The Stand  - Abe Zachariahs
TTITLE4=He Ain´t  - Jenny Casey
TTITLE5=Not Enough Whiskey  - Kim Brasso
TTITLE6=You Don´t Have To Leave Here Like You Came  - Ernrst Dewaters
TTITLE7=Til The Lie I´m Living Comes True  - Linda Wright
TTITLE8=Can´t Get Over Over You Getting Over Me  - Derek Mccorkell
TTITLE9=Promis Land  - Del York
TTITLE10=He´s Not Mr. Right  - Myra Leblanc
TTITLE11=It´s A Crying Shame  - Garry Jackson
TTITLE12=My Baby Drives A Big Truck  - Eddie Ramsey
TTITLE13=He Leavin Again  - Kim Brasso
TTITLE14=My Love For You  - Abe Zachariahs
TTITLE15=Down In The Apple Orchard  - Ernest Dewater
EXTD=
EXTT0=
EXTT1=
EXTT2=
EXTT3=
EXTT4=
EXTT5=
EXTT6=
EXTT7=
EXTT8=
EXTT9=
EXTT10=
EXTT11=
EXTT12=
EXTT13=
EXTT14=
EXTT15=
PLAYORDER=
